<svg xmlns="http://www.w3.org/2000/svg" viewBox="0 0 64 64" role="img" aria-label="CediTill">
  <defs>
    <linearGradient id="g" x1="0" y1="0" x2="1" y2="1">
      <stop offset="0%" stop-color="#0f766e"/>
      <stop offset="100%" stop-color="#0c5f89"/>
    </linearGradient>
  </defs>
  <rect x="2" y="2" width="60" height="60" rx="14" fill="url(#g)"/>
  <path d="M14 22h36a3 3 0 0 1 3 3v17a3 3 0 0 1-3 3H14a3 3 0 0 1-3-3V25a3 3 0 0 1 3-3z" fill="#fff"/>
  <rect x="18" y="27" width="28" height="4" rx="2" fill="#0f766e"/>
  <rect x="20" y="34" width="24" height="3" rx="1.5" fill="#0f766e" opacity=".7"/>
  <rect x="22" y="39" width="20" height="3" rx="1.5" fill="#0f766e" opacity=".7"/>
  <rect x="26" y="46" width="12" height="8" rx="2" fill="#f59e0b"/>
</svg>
